<svg xmlns="http://www.w3.org/2000/svg" viewBox="0 0 5181.000000 2061.000000" role="img" aria-label="Glam Room Hair Spa — logo kompaktowe">
<title>Glam Room Hair Spa — logo kompaktowe</title>
<g fill="#0A0A0A" transform="translate(0.000000,2061.000000) scale(0.050000,-0.050000)" stroke="none">
<path d="M19860 41159 c-589 -13 -1008 -40 -1392 -90 -122 -16 -252 -29 -290
-29 -37 1 -162 -13 -278 -31 -115 -17 -300 -45 -410 -62 -309 -46 -705 -117
-1010 -180 -324 -66 -459 -97 -750 -168 -55 -13 -131 -31 -170 -39 -38 -8
-119 -29 -180 -46 -549 -152 -524 -145 -660 -185 -60 -19 -150 -45 -200 -60
-90 -26 -169 -53 -300 -100 -38 -14 -128 -44 -200 -66 -198 -62 -338 -111
-500 -173 -49 -19 -124 -47 -165 -62 -177 -66 -249 -93 -305 -117 -33 -14
-100 -42 -150 -61 -49 -19 -119 -47 -155 -63 -36 -15 -94 -39 -130 -54 -36
-14 -101 -42 -145 -62 -44 -20 -107 -48 -140 -62 -338 -146 -944 -439 -1300
-630 -99 -53 -225 -120 -280 -148 -55 -29 -131 -71 -170 -94 -38 -23 -110 -64
-160 -91 -49 -27 -117 -66 -150 -87 -33 -21 -78 -48 -100 -59 -22 -11 -67 -38
-100 -60 -33 -22 -78 -49 -100 -60 -22 -11 -64 -36 -94 -55 -87 -57 -335 -213
-372 -235 -201 -118 -1124 -767 -1364 -958 -71 -57 -242 -193 -380 -302 -857
-681 -1774 -1554 -2532 -2412 -434 -493 -555 -640 -1000 -1225 -379 -498 -747
-1027 -1032 -1484 -58 -94 -122 -195 -141 -225 -19 -30 -41 -67 -49 -84 -8
-16 -78 -138 -156 -270 -79 -132 -149 -253 -157 -270 -7 -16 -37 -70 -65 -120
-233 -407 -607 -1164 -851 -1720 -22 -49 -53 -121 -70 -160 -52 -117 -80 -186
-117 -280 -19 -49 -47 -117 -61 -150 -25 -59 -65 -164 -121 -315 -16 -41 -41
-111 -58 -155 -133 -356 -167 -452 -233 -660 -22 -71 -52 -161 -66 -200 -63
-175 -76 -214 -91 -280 -9 -38 -25 -97 -37 -130 -11 -33 -36 -114 -55 -180
-18 -66 -45 -160 -60 -210 -14 -49 -40 -148 -59 -220 -18 -71 -46 -170 -61
-219 -16 -48 -28 -107 -28 -131 0 -24 -12 -83 -28 -131 -15 -49 -43 -161 -61
-249 -19 -88 -47 -206 -63 -262 -15 -56 -28 -119 -28 -140 0 -21 -13 -96 -29
-168 -143 -630 -295 -1793 -355 -2710 -34 -523 -34 -2163 -1 -2640 75 -1058
223 -2130 415 -3000 15 -66 41 -187 59 -270 18 -82 46 -202 62 -265 16 -63 43
-171 60 -240 17 -69 45 -174 61 -235 95 -344 88 -320 178 -630 20 -66 47 -151
60 -190 14 -38 41 -124 60 -190 19 -66 47 -150 62 -186 16 -36 28 -81 28 -100
0 -19 12 -53 27 -75 15 -21 32 -61 38 -89 6 -27 44 -140 84 -250 40 -110 80
-223 90 -251 9 -29 25 -69 37 -90 11 -22 33 -75 50 -119 43 -114 152 -387 188
-470 16 -38 43 -101 60 -140 102 -239 125 -290 217 -490 94 -202 471 -961 556
-1120 36 -66 105 -192 153 -280 48 -88 100 -182 115 -210 15 -27 45 -77 66
-110 21 -33 48 -78 59 -100 11 -22 38 -67 60 -100 22 -33 48 -78 58 -100 10
-22 41 -74 70 -116 29 -42 52 -79 52 -83 0 -5 34 -61 76 -125 42 -64 117 -179
165 -255 151 -236 490 -725 695 -1003 680 -920 1220 -1546 2033 -2359 560
-561 928 -895 1591 -1446 485 -403 1517 -1140 2064 -1472 64 -39 465 -281 505
-305 23 -13 59 -34 81 -45 22 -12 67 -39 100 -60 33 -21 105 -62 160 -91 55
-29 154 -83 220 -120 66 -37 192 -104 280 -149 175 -91 212 -111 265 -141 19
-11 49 -25 65 -32 17 -6 44 -19 60 -30 17 -10 44 -23 60 -30 17 -6 44 -19 60
-30 17 -10 44 -24 60 -30 17 -7 93 -42 170 -78 77 -36 192 -89 255 -118 63
-29 162 -73 220 -100 58 -26 186 -81 285 -122 99 -41 209 -87 245 -102 142
-61 199 -84 285 -118 50 -19 113 -43 140 -55 28 -11 73 -27 100 -36 28 -9 100
-35 160 -59 61 -24 137 -51 170 -60 33 -9 110 -36 170 -60 61 -24 137 -51 170
-60 33 -9 92 -28 130 -41 39 -14 102 -36 140 -49 39 -14 124 -40 190 -59 66
-20 156 -46 200 -60 118 -37 311 -91 630 -179 109 -29 251 -65 475 -120 63
-15 160 -39 215 -53 55 -13 141 -31 190 -39 50 -8 131 -24 180 -36 691 -167
2134 -359 2960 -394 149 -6 306 -20 350 -30 104 -25 1695 -25 1800 0 44 10
197 24 340 30 665 29 1703 150 2350 274 61 11 151 27 200 35 147 24 343 63
460 91 61 14 182 41 270 60 355 74 1002 243 1380 361 44 14 175 54 290 89 116
35 233 73 260 85 28 11 77 27 110 36 33 8 110 35 170 59 61 24 137 51 170 60
59 17 109 35 330 121 61 23 133 49 161 58 29 9 69 25 90 37 22 11 80 35 129
54 50 18 117 45 150 60 33 14 110 46 170 70 98 39 168 70 390 169 244 108 823
383 870 413 17 10 44 23 60 30 17 6 44 19 60 28 17 10 102 55 190 101 88 45
211 111 274 146 63 34 162 89 220 121 58 33 129 71 156 87 28 15 77 44 110 65
33 21 83 50 110 65 28 15 138 81 246 146 107 65 211 128 230 139 76 46 227
144 474 309 425 284 454 304 610 421 83 62 194 142 249 178 54 36 184 134 290
218 105 83 277 220 381 303 292 232 763 637 1070 920 246 228 974 958 1154
1158 96 106 202 225 237 263 88 97 231 263 382 440 115 135 205 247 548 680
110 140 228 297 419 561 376 521 944 1407 1209 1887 33 62 87 159 119 217 172
313 462 884 599 1180 103 221 184 401 211 465 26 61 61 142 118 270 17 39 59
142 94 230 35 88 75 187 89 220 54 125 76 182 92 230 9 28 35 100 59 160 24
61 51 137 60 170 9 33 36 110 60 170 24 61 51 137 59 170 9 33 25 83 36 110
21 51 112 336 175 550 20 66 47 156 61 200 46 151 90 313 180 660 72 274 89
349 180 760 89 405 165 827 236 1300 17 110 45 295 62 410 18 116 32 241 31
278 0 38 13 168 29 290 72 559 97 1105 96 2132 0 1020 -11 1252 -96 2100 -57
564 -152 1231 -239 1670 -133 676 -173 859 -241 1102 -16 56 -29 119 -29 140
0 21 -13 79 -29 128 -15 50 -44 149 -62 220 -38 146 -77 287 -117 420 -15 50
-43 144 -62 210 -20 66 -47 152 -61 190 -13 39 -70 210 -126 380 -124 379
-142 434 -174 510 -24 57 -54 136 -117 305 -44 119 -95 250 -123 315 -14 33
-41 101 -59 150 -19 50 -41 104 -50 122 -9 18 -54 121 -101 230 -170 402 -457
1001 -659 1378 -54 99 -121 225 -149 280 -29 55 -71 132 -94 170 -23 39 -65
113 -94 166 -70 127 -72 131 -223 381 -71 118 -139 230 -150 249 -11 19 -55
88 -98 154 -42 66 -114 178 -159 249 -46 71 -139 211 -207 310 -69 100 -158
231 -199 291 -119 176 -659 892 -836 1107 -88 109 -184 227 -212 263 -51 67
-171 204 -479 550 -331 371 -835 888 -1202 1231 -105 98 -240 225 -300 280
-129 121 -659 577 -840 722 -392 316 -737 580 -963 737 -64 44 -176 123 -250
175 -145 103 -573 392 -629 425 -37 22 -286 179 -372 235 -30 19 -72 44 -94
55 -22 11 -67 38 -100 60 -33 22 -78 49 -100 60 -22 11 -67 38 -100 59 -33 21
-105 63 -160 93 -55 30 -122 68 -150 83 -160 90 -309 171 -450 244 -175 91
-212 111 -265 141 -19 11 -48 25 -65 32 -16 6 -43 19 -60 30 -16 10 -43 23
-60 30 -16 6 -43 19 -60 30 -16 10 -43 24 -60 31 -16 6 -111 50 -210 97 -173
83 -319 149 -510 233 -49 22 -121 54 -160 71 -38 17 -99 44 -135 59 -36 15
-94 39 -130 54 -36 16 -105 44 -155 63 -49 19 -107 43 -129 54 -21 12 -61 28
-90 37 -28 9 -100 35 -161 59 -60 24 -132 51 -160 60 -27 10 -140 51 -250 90
-110 40 -227 81 -260 90 -33 9 -91 28 -130 41 -80 28 -179 63 -280 97 -38 14
-110 37 -160 51 -49 15 -139 42 -200 60 -60 18 -141 41 -180 51 -38 10 -115
31 -170 47 -201 59 -422 118 -490 133 -38 8 -115 26 -170 39 -896 219 -1691
357 -2710 470 -796 88 -1720 117 -2880 90z m-1150 -4949 c1265 -39 4026 -39
5320 0 539 16 1157 29 1372 30 l393 0 11 -135 c11 -120 7 -139 -30 -170 -22
-20 -65 -40 -94 -46 -28 -5 -94 -23 -145 -39 -51 -17 -107 -30 -124 -30 -17 0
-66 -15 -107 -33 -109 -47 -207 -89 -276 -117 -92 -37 -233 -108 -300 -150
-33 -20 -96 -57 -140 -81 -108 -58 -416 -310 -541 -442 -285 -301 -556 -765
-648 -1107 -9 -33 -25 -82 -36 -110 -84 -207 -181 -942 -225 -1710 -36 -631
-42 -887 -59 -2500 -17 -1510 -9 -4221 40 -14840 20 -4142 19 -4676 -10 -5160
-17 -297 -40 -576 -51 -620 -10 -44 -19 -116 -20 -160 -1 -184 -158 -950 -265
-1290 -12 -38 -28 -101 -36 -140 -9 -38 -35 -119 -59 -180 -24 -60 -51 -140
-60 -177 -9 -38 -27 -78 -38 -89 -12 -12 -22 -38 -22 -58 0 -33 -28 -100 -180
-426 -101 -217 -142 -299 -181 -360 -21 -33 -45 -73 -53 -90 -8 -16 -51 -93
-97 -170 -370 -627 -926 -1217 -1683 -1786 -134 -101 -249 -184 -254 -184 -5
0 -66 -39 -136 -86 -122 -83 -495 -312 -556 -340 -16 -8 -84 -44 -150 -80
-219 -120 -278 -150 -450 -231 -163 -76 -447 -196 -605 -255 -178 -67 -239
-90 -310 -116 -142 -54 -496 -155 -848 -242 -206 -52 -230 -43 -312 114 l-71
135 360 355 c483 478 757 809 1122 1356 147 221 176 266 197 310 8 17 34 62
57 100 148 240 395 734 509 1020 25 61 54 127 65 149 12 21 28 61 37 90 9 28
35 101 58 161 24 61 61 169 84 240 22 72 52 162 66 200 14 39 39 120 56 180
17 61 44 160 61 220 131 472 273 1238 275 1481 0 60 9 177 20 259 12 83 29
312 38 510 10 198 27 527 39 730 70 1211 169 4694 202 7090 9 660 26 1803 38
2540 34 2104 63 5666 63 7690 -1 3335 -57 4596 -254 5630 -61 327 -176 734
-239 853 -15 29 -28 63 -28 74 0 27 -129 292 -181 373 -21 33 -45 74 -52 90
-8 17 -93 129 -190 250 -187 234 -438 477 -605 587 -56 37 -115 78 -132 92
-36 31 -229 137 -425 234 -176 87 -645 223 -1025 298 -164 32 -172 42 -158
176 6 62 15 124 19 138 11 34 728 33 1959 -5z m-7450 -6259 c1337 7 2731 18
3098 26 436 8 677 6 695 -7 15 -11 35 -78 45 -150 18 -133 5 -180 -50 -180
-15 0 -56 -13 -92 -28 -36 -15 -106 -44 -156 -63 -779 -303 -1410 -894 -1567
-1469 -71 -259 -71 -263 -42 -550 39 -393 101 -710 222 -1150 60 -221 148
-518 177 -600 13 -38 35 -101 49 -140 13 -38 32 -97 41 -130 9 -33 28 -91 41
-130 14 -38 36 -101 49 -140 13 -38 35 -101 49 -140 13 -38 32 -97 41 -130 9
-33 36 -109 60 -170 24 -60 51 -137 60 -170 9 -33 36 -109 60 -170 24 -60 51
-137 60 -170 9 -33 36 -109 60 -170 24 -60 51 -132 60 -160 9 -27 36 -99 60
-160 24 -60 50 -137 59 -170 8 -33 24 -78 35 -100 45 -86 86 -193 87 -226 0
-19 13 -51 30 -73 16 -21 29 -54 29 -73 0 -19 13 -60 28 -91 27 -53 56 -127
122 -307 14 -38 55 -142 90 -230 35 -88 78 -196 95 -240 16 -44 42 -107 56
-140 14 -33 40 -98 57 -145 60 -161 97 -255 123 -315 14 -33 40 -100 59 -150
19 -49 45 -117 59 -150 14 -33 41 -100 60 -150 19 -49 46 -117 60 -150 14 -33
42 -100 61 -150 19 -49 47 -117 61 -150 14 -33 41 -100 60 -150 37 -98 67
-172 114 -280 16 -38 46 -110 65 -160 19 -49 49 -121 65 -160 44 -101 72 -169
145 -350 60 -150 76 -187 148 -355 15 -36 70 -168 122 -295 52 -126 108 -261
126 -300 17 -38 43 -99 57 -135 27 -66 70 -166 117 -275 14 -33 154 -361 310
-730 157 -368 307 -719 333 -780 93 -209 111 -250 141 -320 61 -143 87 -202
119 -275 19 -41 47 -106 63 -145 17 -38 37 -84 45 -102 8 -17 66 -151 129
-298 63 -147 121 -281 129 -298 16 -34 69 -152 113 -252 14 -33 52 -118 84
-190 100 -222 100 -216 4 -460 -24 -60 -51 -132 -60 -160 -9 -27 -36 -99 -60
-160 -24 -60 -51 -132 -60 -160 -9 -27 -36 -99 -60 -160 -24 -60 -51 -132 -60
-160 -9 -27 -36 -99 -60 -160 -24 -60 -51 -137 -60 -170 -9 -33 -36 -109 -60
-170 -24 -60 -51 -132 -60 -160 -9 -27 -36 -99 -60 -160 -23 -60 -64 -173 -91
-250 -26 -77 -63 -180 -81 -230 -81 -218 -172 -475 -188 -530 -10 -33 -50
-150 -90 -260 -40 -110 -81 -227 -90 -260 -17 -62 -46 -148 -92 -270 -14 -38
-31 -90 -38 -114 -14 -50 -67 -65 -268 -72 l-128 -4 -89 250 c-48 138 -96 277
-105 310 -9 33 -36 110 -60 170 -24 61 -51 137 -60 170 -17 59 -38 116 -121
330 -23 61 -47 128 -53 150 -5 22 -23 68 -38 103 -15 35 -28 73 -28 84 0 12
-13 51 -28 87 -28 66 -71 178 -124 321 -16 41 -41 111 -58 155 -16 44 -43 116
-60 160 -16 44 -45 118 -62 165 -18 47 -45 119 -60 160 -16 41 -43 113 -60
160 -18 47 -45 119 -60 160 -16 41 -40 109 -56 150 -65 177 -98 258 -124 308
-15 29 -28 67 -28 83 0 17 -13 56 -28 87 -27 53 -60 136 -122 307 -38 103 -92
242 -121 310 -14 33 -40 98 -57 145 -18 47 -46 123 -64 170 -17 47 -43 112
-57 145 -27 62 -70 173 -119 305 -44 119 -95 250 -123 315 -14 33 -41 101 -59
150 -19 50 -48 126 -65 170 -16 44 -42 107 -56 140 -14 33 -39 96 -55 140 -16
44 -59 152 -94 240 -35 88 -78 196 -94 240 -16 44 -41 107 -55 140 -14 33 -41
101 -60 150 -19 50 -46 117 -60 150 -14 33 -40 96 -56 140 -17 44 -58 148 -91
230 -33 83 -88 222 -123 310 -36 88 -76 187 -90 220 -14 33 -41 101 -60 150
-19 50 -46 117 -60 150 -14 33 -42 101 -61 150 -19 50 -47 117 -61 150 -14 33
-54 132 -89 220 -35 88 -75 187 -89 220 -14 33 -42 101 -61 150 -40 103 -71
179 -115 280 -16 39 -46 111 -65 160 -19 50 -49 122 -65 160 -44 101 -72 169
-145 350 -36 88 -79 192 -96 230 -29 65 -51 118 -114 270 -14 33 -54 132 -90
220 -36 88 -76 187 -90 220 -14 33 -39 92 -55 130 -16 39 -45 106 -64 150 -19
44 -48 112 -65 150 -16 39 -42 97 -56 130 -14 33 -100 236 -190 450 -91 215
-187 440 -213 500 -27 61 -61 137 -75 170 -15 33 -43 96 -63 140 -20 44 -47
107 -61 140 -14 33 -53 121 -87 195 -34 74 -61 140 -61 145 0 5 -28 71 -62
145 -34 74 -73 162 -88 195 -15 33 -54 119 -86 190 -33 72 -84 184 -114 250
-131 294 -167 372 -349 760 -128 271 -572 1162 -653 1310 -40 72 -96 173 -125
226 -66 120 -71 129 -193 331 -55 91 -109 181 -120 200 -118 200 -397 586
-635 879 -351 433 -892 893 -1245 1059 -157 75 -232 105 -258 105 -14 0 -43
19 -63 41 -31 34 -36 68 -32 195 3 84 13 158 23 164 9 5 402 -2 873 -16 626
-18 1512 -22 3287 -13z m7710 -6 l640 -15 0 -1375 c0 -760 -8 -1377 -17 -1380
-15 -4 -119 172 -221 375 -17 33 -57 105 -91 160 -33 55 -66 112 -74 127 -25
52 -312 473 -404 593 -228 297 -719 753 -1008 936 -101 64 -394 214 -418 214
-13 0 -40 15 -60 33 -30 27 -37 64 -37 198 0 92 9 169 20 172 11 4 247 0 525
-8 278 -9 793 -22 1145 -30z m6318 -50 c27 -178 28 -214 6 -230 -13 -10 -114
-47 -224 -83 -110 -36 -231 -79 -270 -96 -38 -17 -97 -42 -130 -56 -97 -40
-475 -229 -540 -271 -33 -21 -73 -45 -90 -53 -63 -29 -321 -212 -406 -287 -49
-43 -94 -72 -101 -65 -17 16 -17 876 0 1051 12 131 14 135 75 145 109 18 1601
42 1636 25 19 -8 39 -45 44 -80z m4862 65 c1087 -27 4517 -26 5151 2 276 12
507 17 512 12 5 -5 11 -78 13 -162 l4 -153 -70 -38 c-38 -21 -137 -71 -220
-111 -82 -40 -177 -90 -210 -111 -33 -21 -78 -48 -100 -59 -262 -135 -903
-711 -1364 -1226 -130 -145 -240 -268 -246 -274 -6 -5 -100 -121 -210 -258
-270 -335 -516 -672 -845 -1161 -272 -405 -303 -453 -344 -531 -12 -22 -37
-64 -56 -93 -29 -44 -175 -284 -255 -420 -24 -41 -65 -113 -138 -247 -30 -55
-71 -127 -92 -160 -33 -54 -96 -174 -270 -510 -91 -177 -88 -175 -255 -156
-80 10 -157 29 -171 43 -20 21 -20 63 5 224 64 430 58 1518 -10 1929 -38 230
-81 447 -109 550 -73 264 -111 389 -150 490 -24 61 -50 133 -59 160 -32 103
-209 452 -324 638 -269 437 -575 751 -947 969 -88 52 -173 102 -190 112 -34
22 -177 91 -280 135 -38 17 -95 43 -127 58 -31 16 -69 28 -85 28 -15 0 -29 11
-31 25 -8 69 10 306 23 315 19 12 348 7 1450 -20z m-6487 -5020 c23 -71 50
-152 61 -180 12 -27 28 -77 37 -110 9 -33 49 -150 89 -260 40 -110 81 -227 90
-260 17 -60 123 -357 189 -530 18 -49 41 -117 51 -150 9 -33 36 -109 60 -170
24 -60 51 -132 60 -160 9 -27 36 -99 60 -160 24 -60 51 -132 60 -160 9 -27 36
-99 60 -160 24 -60 50 -133 59 -161 9 -29 25 -69 37 -90 19 -37 53 -123 118
-299 16 -44 41 -107 55 -140 14 -33 40 -96 56 -140 45 -116 154 -390 184 -460
14 -33 42 -100 61 -150 19 -49 47 -119 63 -155 15 -36 39 -94 54 -130 16 -36
44 -105 63 -155 19 -49 47 -117 61 -150 26 -62 69 -164 117 -275 15 -36 70
-168 122 -295 52 -126 108 -261 126 -300 17 -38 44 -101 61 -140 16 -38 43
-101 60 -140 16 -38 43 -101 60 -140 16 -38 41 -97 54 -130 14 -33 41 -96 60
-140 20 -44 49 -111 66 -150 16 -38 43 -101 60 -140 16 -38 43 -101 59 -140
17 -38 37 -84 45 -102 8 -17 66 -151 129 -298 63 -147 121 -281 129 -298 8
-18 29 -63 45 -102 17 -38 45 -101 62 -140 18 -38 59 -131 93 -205 34 -74 61
-140 61 -145 0 -5 27 -71 61 -145 34 -74 74 -164 90 -200 16 -36 42 -94 58
-130 16 -36 56 -126 90 -200 34 -74 61 -140 61 -145 0 -5 28 -71 62 -145 175
-384 238 -525 238 -535 0 -5 28 -71 62 -145 175 -384 238 -525 238 -535 0 -12
110 -258 151 -337 36 -70 37 -114 1 -197 -26 -61 -43 -107 -122 -316 -16 -44
-43 -116 -60 -160 -16 -44 -44 -118 -62 -165 -17 -47 -44 -110 -60 -142 -15
-31 -28 -65 -28 -77 0 -11 -14 -53 -32 -93 -17 -40 -44 -103 -60 -139 -15 -36
-28 -78 -28 -93 0 -15 -13 -53 -28 -84 -51 -104 -92 -208 -92 -235 0 -15 -13
-53 -30 -85 -16 -31 -30 -71 -30 -88 0 -16 -12 -48 -27 -70 -15 -21 -32 -61
-38 -89 -6 -27 -31 -99 -55 -160 -23 -60 -51 -132 -60 -160 -9 -27 -36 -99
-60 -160 -24 -60 -51 -137 -60 -170 -17 -59 -38 -118 -121 -330 -23 -60 -50
-137 -59 -170 -9 -33 -36 -109 -60 -170 -24 -60 -51 -137 -60 -170 -16 -60
-37 -121 -98 -287 -18 -47 -45 -93 -62 -102 -16 -8 -94 -21 -172 -28 -156 -14
-191 4 -214 107 -12 54 -106 324 -175 500 -23 61 -50 137 -59 170 -9 33 -36
110 -60 170 -24 61 -51 133 -60 160 -9 28 -36 100 -60 160 -24 61 -48 128 -53
150 -6 22 -22 67 -37 100 -76 176 -90 214 -91 246 0 19 -13 51 -30 73 -16 21
-29 54 -29 73 0 19 -13 60 -28 91 -16 32 -43 95 -60 142 -18 47 -47 123 -64
170 -18 47 -44 117 -58 155 -14 39 -40 108 -58 155 -17 47 -46 123 -64 170
-17 47 -44 110 -60 142 -15 31 -28 68 -28 83 0 15 -13 52 -28 83 -16 32 -42
93 -58 137 -53 143 -97 259 -123 320 -14 33 -40 96 -56 140 -17 44 -46 121
-65 170 -18 50 -45 117 -59 150 -14 33 -40 96 -56 140 -17 44 -46 121 -65 170
-18 50 -45 117 -59 150 -26 60 -63 154 -123 315 -17 47 -43 112 -57 145 -26
60 -63 154 -123 315 -17 47 -43 112 -57 145 -14 33 -41 98 -58 145 -18 47 -48
123 -66 170 -17 47 -44 112 -58 145 -14 33 -41 101 -60 150 -19 50 -46 119
-62 155 -15 36 -39 94 -54 130 -14 36 -41 97 -58 135 -29 63 -33 380 -46 2990
-8 1606 -20 3366 -27 3910 -7 545 -9 1003 -4 1019 11 34 68 -93 125 -279z"/>
<path d="M50350 29179 c-55 -8 -155 -16 -221 -17 -67 -1 -162 -14 -210 -30
-49 -15 -138 -42 -199 -60 -329 -98 -431 -142 -767 -330 -218 -123 -559 -441
-773 -722 -133 -174 -392 -654 -421 -780 -9 -38 -36 -133 -59 -210 -109 -358
-125 -495 -125 -1066 0 -517 7 -573 97 -896 15 -56 28 -121 28 -144 0 -42 37
-155 91 -274 15 -33 51 -114 80 -180 29 -66 66 -147 81 -180 55 -119 343 -483
459 -580 65 -55 150 -130 189 -166 38 -36 142 -102 230 -146 88 -45 196 -101
240 -125 78 -42 183 -79 410 -140 61 -17 160 -44 220 -60 113 -31 730 -94 910
-93 172 1 644 96 800 161 189 78 448 215 551 291 66 49 126 88 135 88 38 0
278 -259 325 -350 l51 -100 299 -4 c256 -3 303 1 324 29 36 46 37 2605 1 2641
-38 38 -2043 34 -2074 -4 -15 -18 -21 -102 -18 -245 l6 -217 339 -5 c208 -4
348 -14 365 -28 21 -17 26 -162 26 -699 0 -676 0 -676 -45 -719 -25 -24 -63
-51 -85 -61 -22 -10 -53 -26 -70 -35 -126 -71 -253 -116 -440 -156 -218 -46
-396 -52 -634 -20 -288 39 -409 78 -663 211 -73 39 -390 359 -427 432 -16 33
-63 125 -103 203 -40 79 -73 158 -73 175 0 17 -13 60 -28 96 -46 107 -92 276
-92 338 0 31 -13 122 -29 202 -67 336 -72 1272 -8 1666 12 77 29 196 37 264
16 132 170 636 210 686 13 17 30 44 37 60 7 17 31 57 53 90 22 33 47 78 57
100 10 22 90 108 177 190 155 146 403 300 484 300 20 0 68 13 105 28 124 52
525 80 759 53 252 -29 362 -61 618 -179 111 -51 362 -247 453 -354 93 -109
227 -303 227 -328 0 -9 13 -42 28 -73 55 -110 88 -198 111 -297 46 -195 50
-200 231 -204 253 -6 256 -4 240 120 -22 170 -79 351 -163 517 -15 29 -27 64
-27 77 0 13 -27 64 -60 113 -33 49 -60 93 -60 97 0 24 -171 246 -273 355 -136
146 -405 356 -542 423 -342 170 -509 222 -835 262 -242 30 -407 33 -560 9z"/>
<path d="M85200 29169 c-243 -25 -298 -36 -550 -111 -250 -76 -387 -139 -680
-314 -343 -205 -606 -464 -859 -844 -117 -176 -311 -549 -311 -598 0 -11 -12
-50 -28 -86 -61 -148 -137 -460 -173 -716 -54 -381 -32 -892 53 -1230 51 -204
91 -337 120 -406 15 -36 28 -75 28 -86 0 -31 176 -381 211 -419 16 -18 29 -39
29 -46 0 -29 266 -367 386 -491 113 -115 336 -302 361 -302 6 0 50 -25 97 -55
238 -152 485 -266 716 -332 261 -73 369 -93 686 -124 309 -30 361 -30 660 0
356 35 551 72 764 146 77 26 157 53 179 60 79 24 426 213 591 321 340 223 698
650 893 1064 83 176 158 376 188 500 9 39 25 106 36 150 64 250 83 429 83 775
0 411 -46 742 -143 1025 -11 33 -28 87 -37 120 -44 154 -142 375 -254 570 -87
151 -374 523 -509 658 -122 122 -408 326 -610 434 -53 28 -137 73 -185 100
-49 26 -97 48 -107 48 -10 0 -47 12 -82 27 -68 29 -213 72 -403 120 -137 35
-578 75 -770 70 -71 -2 -242 -14 -380 -28z m860 -530 c168 -56 219 -81 375
-185 173 -116 279 -232 403 -444 201 -343 279 -596 371 -1204 43 -287 43
-1267 0 -1563 -68 -461 -119 -655 -241 -915 -179 -380 -333 -545 -658 -703
-236 -115 -586 -159 -920 -116 -290 38 -371 63 -562 174 -153 89 -351 274
-412 385 -175 320 -260 536 -296 752 -9 50 -25 140 -37 200 -112 566 -108
1501 8 2050 16 77 29 157 29 178 0 42 48 217 94 342 43 114 206 449 256 522
153 225 429 435 690 523 206 70 696 72 900 4z"/>
<path d="M92430 29171 c-132 -13 -280 -35 -330 -48 -402 -112 -471 -139 -756
-295 -423 -232 -613 -397 -916 -798 -66 -88 -127 -173 -135 -190 -7 -16 -31
-57 -52 -90 -203 -319 -374 -850 -423 -1310 -29 -276 -12 -864 31 -1060 135
-612 313 -983 684 -1423 167 -198 290 -312 447 -415 155 -101 154 -100 394
-220 268 -133 309 -151 446 -189 267 -74 370 -93 689 -124 315 -30 362 -30
670 0 385 39 680 100 871 183 516 221 830 434 1093 741 237 275 302 371 445
657 108 218 174 412 266 790 53 218 52 1076 -1 1310 -102 447 -242 823 -394
1060 -21 33 -45 74 -52 90 -44 96 -377 499 -515 622 -93 84 -322 250 -393 285
-16 8 -83 45 -149 82 -271 153 -399 202 -780 298 -137 35 -577 75 -770 70 -71
-1 -238 -13 -370 -26z m840 -525 c302 -96 635 -344 759 -566 206 -366 284
-590 371 -1050 34 -181 79 -751 79 -1000 0 -401 -52 -903 -131 -1260 -98 -443
-328 -837 -598 -1022 -220 -151 -357 -200 -669 -239 -314 -38 -731 6 -881 94
-16 9 -49 25 -71 35 -179 78 -358 235 -475 417 -189 295 -265 504 -354 975
-33 178 -79 750 -79 990 0 237 45 809 78 990 77 422 127 585 257 847 133 265
134 268 235 379 159 177 389 328 619 406 183 62 671 64 860 4z"/>
<path d="M61848 29145 c-13 -8 -142 -294 -288 -634 -146 -341 -271 -633 -279
-650 -27 -57 -126 -285 -170 -391 -31 -76 -75 -178 -120 -280 -19 -44 -46
-107 -60 -140 -27 -68 -69 -163 -122 -280 -20 -44 -47 -107 -60 -140 -14 -33
-39 -91 -55 -130 -17 -38 -44 -101 -60 -140 -17 -38 -46 -106 -65 -150 -20
-44 -49 -111 -65 -150 -17 -38 -36 -84 -45 -101 -8 -17 -160 -372 -339 -789
-179 -417 -331 -772 -339 -789 -21 -44 -81 -181 -110 -251 -13 -33 -38 -91
-54 -130 -17 -38 -44 -101 -60 -140 -17 -38 -46 -106 -66 -150 -19 -44 -49
-111 -66 -150 -17 -38 -44 -101 -61 -140 -17 -38 -42 -97 -55 -130 -14 -33
-36 -84 -50 -114 -48 -105 -29 -112 290 -112 l292 0 49 72 c28 40 50 84 50 97
0 13 12 49 28 80 37 78 72 158 182 427 52 127 108 262 126 300 35 80 79 184
113 270 27 66 87 203 110 250 13 26 169 31 1187 35 l1172 5 41 -44 c23 -24 41
-56 41 -72 0 -15 12 -52 28 -81 15 -29 41 -84 59 -123 17 -38 58 -131 92 -205
34 -74 61 -140 61 -145 0 -5 27 -71 61 -145 78 -172 112 -249 147 -330 129
-299 159 -357 195 -376 18 -10 349 -18 736 -18 598 1 705 5 714 30 6 16 -15
86 -48 154 -58 121 -126 267 -250 535 -33 72 -87 189 -120 260 -33 72 -87 189
-120 260 -33 72 -86 186 -117 255 -32 69 -86 186 -120 260 -35 74 -89 191
-120 260 -32 69 -86 186 -120 260 -35 74 -88 189 -118 255 -30 66 -83 181
-118 255 -34 74 -90 196 -124 270 -35 74 -89 191 -120 260 -32 69 -86 186
-120 260 -35 74 -88 189 -118 255 -30 66 -84 183 -120 260 -36 77 -91 196
-122 265 -32 69 -85 184 -118 255 -33 72 -87 189 -120 260 -33 72 -86 186
-118 255 -31 69 -84 184 -118 255 -33 72 -84 184 -114 250 -30 66 -84 183
-120 260 -36 77 -71 156 -77 175 -10 30 -39 35 -207 35 -108 0 -206 -7 -218
-15z m-111 -1950 c36 -80 77 -172 92 -205 36 -79 124 -277 174 -390 22 -49 52
-117 67 -150 50 -112 133 -300 173 -390 22 -49 52 -117 66 -150 65 -145 111
-248 160 -360 95 -215 115 -259 146 -317 18 -34 22 -64 11 -75 -11 -11 -397
-16 -937 -13 l-919 5 4 60 c3 33 19 89 35 125 39 83 77 171 121 285 19 50 49
122 66 160 17 39 42 97 55 130 13 33 37 92 54 130 16 39 46 111 65 160 33 85
52 130 118 285 15 36 56 137 92 225 87 216 130 319 207 496 18 41 33 89 33
105 0 73 58 16 117 -116z"/>
<path d="M54645 29107 c-20 -8 -25 -629 -25 -3008 0 -2928 1 -2998 38 -3018
25 -13 701 -20 1988 -20 1752 0 1951 3 1962 31 7 17 12 134 12 260 l0 228
-1299 0 c-788 0 -1303 7 -1310 19 -7 10 -12 1244 -11 2742 0 2001 -6 2732 -22
2752 -19 22 -145 27 -665 25 -354 0 -654 -6 -668 -11z"/>
<path d="M66129 29095 c-5 -14 -7 -1375 -4 -3025 l5 -3000 264 -4 c217 -4 270
1 295 26 28 28 31 270 31 2251 -1 1220 4 2228 11 2238 19 31 43 5 56 -61 7
-33 34 -108 60 -165 26 -58 90 -208 142 -335 94 -227 113 -272 182 -430 19
-44 48 -111 64 -150 16 -38 41 -97 55 -130 14 -33 54 -132 90 -220 36 -88 79
-191 96 -230 17 -38 44 -101 60 -140 16 -38 43 -101 59 -140 16 -38 41 -97 55
-130 14 -33 68 -163 120 -290 52 -126 106 -257 120 -290 14 -33 39 -91 55
-130 16 -38 43 -101 59 -140 16 -38 43 -101 60 -140 18 -38 74 -173 126 -300
52 -126 108 -261 126 -300 17 -38 44 -101 60 -140 35 -84 51 -121 180 -430
l101 -240 206 0 c200 0 206 1 229 50 37 81 79 180 148 350 36 88 79 192 96
230 17 39 42 97 55 130 13 33 37 92 54 130 17 39 73 174 125 300 52 127 107
259 122 295 16 36 42 99 60 140 18 41 44 102 58 135 14 33 54 132 90 220 36
88 77 189 92 225 44 102 90 209 118 275 14 33 54 132 90 220 36 88 77 189 92
225 16 36 40 94 55 130 14 36 40 97 57 135 18 39 74 174 125 300 118 288 137
333 176 420 58 129 271 649 284 695 8 25 27 45 42 45 25 0 29 -317 29 -2299 0
-2217 1 -2300 37 -2319 53 -29 1283 -27 1317 1 37 31 39 5976 2 6013 -18 18
-198 24 -687 24 -606 0 -665 -3 -694 -35 -17 -19 -91 -179 -165 -355 -74 -176
-148 -351 -165 -390 -18 -38 -45 -101 -62 -140 -16 -38 -43 -101 -60 -140 -16
-38 -43 -101 -60 -140 -16 -38 -42 -99 -56 -135 -15 -36 -39 -94 -54 -130 -14
-36 -42 -101 -62 -145 -19 -44 -46 -107 -60 -140 -32 -80 -77 -184 -115 -270
-18 -38 -128 -299 -246 -580 -118 -280 -228 -541 -246 -580 -17 -38 -42 -97
-55 -130 -14 -33 -41 -96 -60 -140 -20 -44 -47 -107 -60 -140 -14 -33 -39 -94
-57 -135 -44 -102 -80 -189 -123 -290 -33 -79 -89 -117 -89 -60 0 21 -171 441
-276 675 -17 39 -44 102 -60 140 -16 39 -43 102 -59 140 -16 39 -40 97 -54
130 -13 33 -38 92 -55 130 -18 39 -74 174 -126 300 -99 241 -123 299 -181 430
-41 92 -84 193 -118 280 -13 33 -38 92 -55 130 -18 39 -88 205 -156 370 -68
165 -138 332 -156 370 -17 39 -42 97 -55 130 -14 33 -39 94 -57 135 -18 41
-44 104 -59 140 -14 36 -40 97 -57 135 -17 39 -61 142 -97 230 -36 88 -79 171
-96 185 -23 19 -196 25 -707 25 -523 0 -679 -6 -687 -25z"/>
<path d="M76735 29100 c-33 -21 -35 -192 -35 -2998 0 -2821 2 -2978 36 -3008
31 -28 115 -32 663 -32 376 0 642 8 664 20 35 19 37 74 37 1295 0 965 6 1281
24 1299 34 34 458 33 499 -1 17 -14 58 -65 90 -115 33 -49 117 -171 187 -270
70 -99 165 -234 210 -300 46 -66 141 -201 211 -300 69 -99 170 -243 224 -320
53 -77 151 -216 217 -310 67 -93 161 -228 210 -300 49 -71 144 -206 210 -300
67 -93 147 -209 179 -257 31 -49 74 -100 95 -115 58 -40 1541 -39 1556 1 7 16
-342 497 -835 1152 -466 618 -874 1161 -906 1207 -33 45 -103 136 -155 201
-117 145 -121 179 -21 207 647 181 1165 653 1344 1225 53 170 58 627 8 797
-71 244 -158 408 -296 557 -272 294 -534 437 -1041 570 -374 98 -420 101
-1920 109 -995 5 -1430 1 -1455 -14z m2575 -511 c202 -36 281 -68 406 -166
138 -108 219 -249 289 -503 56 -207 60 -749 7 -930 -125 -417 -360 -657 -722
-737 -135 -30 -241 -34 -680 -29 l-520 6 -5 1170 c-3 644 -1 1181 4 1195 15
40 987 35 1221 -6z"/>
<path d="M97269 29095 c-5 -14 -7 -1375 -4 -3025 l5 -3000 270 -3 c159 -2 280
5 295 17 20 17 25 495 25 2268 0 2131 5 2361 52 2213 16 -49 68 -182 103 -265
17 -38 41 -97 54 -130 13 -33 38 -91 55 -130 17 -38 60 -142 96 -230 36 -88
78 -191 95 -230 17 -38 44 -101 60 -140 16 -38 41 -97 55 -130 14 -33 54 -132
90 -220 36 -88 77 -189 92 -225 16 -36 40 -94 56 -130 15 -36 56 -137 92 -225
36 -88 79 -191 96 -230 17 -38 42 -97 55 -130 13 -33 37 -91 54 -130 17 -38
59 -142 95 -230 36 -88 79 -191 96 -230 17 -38 42 -97 55 -130 13 -33 37 -91
54 -130 17 -38 59 -142 95 -230 36 -88 79 -191 96 -230 17 -38 42 -97 55 -130
13 -33 37 -91 54 -130 17 -38 60 -142 96 -230 35 -88 79 -194 97 -234 l32 -75
203 0 c138 -1 208 7 222 24 11 14 40 75 65 135 24 61 57 139 72 175 15 36 40
94 55 130 14 36 40 97 57 135 17 39 60 142 96 230 36 88 77 189 92 225 16 36
40 94 55 130 14 36 40 97 57 135 17 39 60 142 96 230 36 88 76 187 90 220 28
66 74 173 118 275 15 36 56 137 92 225 36 88 76 187 90 220 66 154 92 215 117
275 14 36 40 97 57 135 17 39 60 142 96 230 36 88 77 189 92 225 44 102 90
209 118 275 14 33 54 132 90 220 36 88 76 187 90 220 62 150 85 205 114 270
17 39 47 111 66 160 48 125 59 146 86 155 18 6 24 -533 24 -2282 0 -2028 3
-2294 31 -2321 26 -26 122 -30 664 -30 422 0 642 7 659 21 37 31 39 5976 2
6013 -18 18 -198 24 -689 24 l-664 0 -42 -53 c-22 -29 -41 -66 -41 -82 0 -16
-12 -53 -27 -82 -34 -66 -119 -260 -182 -413 -13 -33 -38 -91 -55 -130 -18
-38 -128 -299 -246 -580 -223 -531 -243 -578 -301 -710 -20 -44 -49 -111 -66
-150 -16 -38 -43 -101 -60 -140 -16 -38 -42 -99 -56 -135 -26 -62 -54 -128
-121 -285 -16 -38 -43 -101 -60 -140 -16 -38 -41 -97 -55 -130 -13 -33 -38
-91 -55 -130 -18 -38 -115 -266 -216 -505 -114 -268 -195 -435 -212 -435 -16
0 -28 13 -28 29 0 16 -15 64 -33 105 -18 42 -44 103 -58 136 -14 33 -39 94
-57 135 -18 41 -44 104 -59 140 -14 36 -40 97 -57 135 -18 39 -88 205 -156
370 -68 165 -138 332 -156 370 -17 39 -44 102 -60 140 -16 39 -43 102 -59 140
-16 39 -41 97 -55 130 -14 33 -82 195 -150 360 -68 165 -136 327 -150 360 -14
33 -40 94 -58 135 -18 41 -46 109 -64 150 -18 41 -44 102 -58 135 -14 33 -82
195 -150 360 -68 165 -136 327 -150 360 -74 171 -90 208 -134 300 l-48 100
-695 5 c-544 4 -696 0 -704 -20z"/>
<path d="M72510 18190 c-310 -38 -468 -89 -750 -241 -86 -46 -271 -214 -367
-334 -246 -303 -364 -752 -313 -1190 54 -474 236 -778 650 -1089 195 -146 535
-324 1040 -545 490 -214 863 -460 1012 -666 164 -228 203 -362 203 -695 -1
-202 -8 -278 -33 -326 -18 -34 -32 -78 -33 -98 0 -20 -23 -72 -50 -116 -27
-44 -57 -99 -67 -122 -32 -73 -273 -276 -405 -341 -184 -91 -294 -123 -527
-150 -228 -26 -554 -3 -780 56 -362 94 -672 301 -846 567 -143 218 -212 400
-274 726 -12 60 -87 107 -139 87 -22 -8 -31 -39 -31 -101 0 -97 62 -381 98
-448 12 -23 22 -54 22 -70 0 -35 67 -180 121 -264 21 -33 47 -79 57 -103 61
-137 442 -457 625 -525 37 -14 83 -34 104 -45 58 -31 271 -90 433 -120 209
-38 689 -33 880 10 201 45 347 85 392 108 36 18 141 66 208 94 116 49 334 211
462 344 126 130 318 412 318 466 0 14 13 53 29 88 73 158 112 575 72 763 -9
44 -27 128 -39 188 -83 405 -450 806 -1022 1115 -49 27 -103 57 -120 66 -16
10 -91 45 -165 79 -978 447 -1188 578 -1427 885 -48 63 -88 124 -88 136 0 12
-12 42 -28 67 -47 76 -98 390 -86 534 43 501 287 806 744 927 300 79 888 47
1093 -59 29 -16 64 -28 77 -28 41 0 287 -175 384 -274 103 -105 276 -391 276
-457 0 -22 9 -50 21 -62 11 -11 29 -76 40 -143 33 -203 45 -224 139 -224 57 0
80 8 80 30 0 75 -47 327 -72 386 -15 36 -28 79 -28 96 0 28 -93 227 -163 349
-62 109 -231 294 -345 378 -235 175 -480 264 -822 301 -216 24 -298 22 -560
-10z"/>
<path d="M56068 18106 c-66 -156 -84 -198 -117 -286 -19 -49 -46 -117 -60
-150 -14 -33 -41 -100 -60 -150 -19 -49 -46 -117 -60 -150 -14 -33 -42 -100
-61 -150 -19 -49 -47 -117 -61 -150 -14 -33 -41 -100 -60 -150 -19 -49 -46
-117 -60 -150 -14 -33 -41 -100 -60 -150 -19 -49 -46 -117 -60 -150 -14 -33
-41 -100 -60 -150 -19 -49 -46 -117 -60 -150 -14 -33 -41 -100 -60 -150 -19
-49 -46 -117 -60 -150 -14 -33 -41 -100 -60 -150 -19 -49 -46 -117 -60 -150
-14 -33 -41 -100 -60 -150 -19 -49 -46 -117 -60 -150 -14 -33 -53 -130 -87
-215 -34 -85 -90 -225 -124 -310 -34 -85 -87 -218 -118 -295 -31 -77 -85 -212
-120 -300 -91 -225 -175 -435 -244 -610 -33 -82 -71 -177 -85 -210 -14 -33
-41 -100 -60 -150 -19 -49 -46 -117 -60 -150 -14 -33 -41 -100 -60 -150 -19
-49 -46 -117 -60 -150 -14 -33 -41 -100 -60 -150 -19 -49 -47 -117 -61 -150
-78 -179 -114 -290 -104 -318 10 -24 40 -32 120 -32 86 0 116 9 151 46 23 26
43 57 43 70 0 12 15 57 33 98 55 128 82 192 118 286 19 50 46 117 60 150 14
33 53 130 87 215 34 85 90 225 124 310 34 85 73 182 87 215 14 33 41 101 60
150 19 50 46 117 60 150 14 33 42 101 62 150 20 50 45 101 55 115 15 20 278
24 1241 20 l1221 -5 44 -90 c25 -49 73 -162 108 -250 35 -88 75 -187 89 -220
15 -33 55 -132 90 -220 36 -88 76 -187 90 -220 15 -33 55 -132 91 -220 36 -88
76 -187 91 -220 14 -33 54 -132 89 -220 34 -88 79 -191 99 -230 l37 -70 372
-5 c415 -7 426 -3 366 121 -17 35 -59 136 -95 224 -71 178 -99 247 -144 350
-17 39 -59 142 -95 230 -75 185 -103 253 -145 350 -17 39 -59 142 -95 230 -73
181 -101 249 -145 350 -16 39 -46 111 -65 160 -35 90 -59 148 -116 280 -17 39
-59 142 -95 230 -35 88 -76 189 -91 225 -16 36 -40 94 -56 130 -15 36 -56 137
-92 225 -75 185 -103 253 -145 350 -17 39 -59 142 -94 230 -36 88 -76 187 -90
220 -15 33 -55 132 -91 220 -36 88 -77 189 -92 225 -16 36 -40 94 -56 130 -15
36 -56 137 -92 225 -36 88 -76 187 -91 220 -14 33 -54 132 -90 220 -35 88 -77
192 -94 230 -42 97 -70 165 -145 350 -62 152 -109 264 -140 330 -9 20 -50 32
-117 36 -102 6 -103 5 -135 -70z m-63 -1091 c52 -110 108 -240 215 -505 36
-88 78 -191 95 -230 43 -100 68 -160 174 -420 52 -126 106 -257 120 -290 15
-33 55 -132 91 -220 36 -88 78 -191 95 -230 17 -38 44 -101 60 -140 16 -38 40
-97 54 -130 14 -33 42 -100 61 -150 41 -105 76 -188 110 -263 14 -29 19 -63
11 -75 -9 -16 -335 -22 -1103 -22 -916 0 -1091 4 -1100 28 -10 25 22 119 101
302 14 33 41 101 60 150 19 50 46 117 60 150 14 33 41 101 60 150 19 50 46
117 60 150 14 33 40 96 56 140 17 44 60 152 95 240 35 88 90 225 122 305 32
80 86 215 120 300 34 85 76 191 93 235 16 44 42 107 56 140 14 33 41 101 59
150 19 50 47 114 62 143 15 29 28 71 28 92 0 85 44 85 85 0z"/>
<path d="M82538 18086 c-57 -129 -86 -199 -127 -306 -19 -49 -46 -117 -60
-150 -14 -33 -41 -100 -60 -150 -19 -49 -46 -117 -60 -150 -14 -33 -41 -100
-60 -150 -19 -49 -46 -117 -60 -150 -14 -33 -41 -100 -60 -150 -19 -49 -46
-117 -60 -150 -14 -33 -41 -100 -60 -150 -19 -49 -46 -117 -60 -150 -14 -33
-42 -100 -61 -150 -19 -49 -47 -117 -61 -150 -14 -33 -41 -100 -60 -150 -19
-49 -46 -117 -60 -150 -14 -33 -41 -100 -60 -150 -19 -49 -46 -117 -60 -150
-14 -33 -53 -130 -87 -215 -82 -205 -164 -411 -238 -595 -33 -82 -88 -222
-123 -310 -36 -88 -76 -187 -90 -220 -14 -33 -41 -100 -60 -150 -19 -49 -46
-117 -60 -150 -14 -33 -41 -100 -60 -150 -19 -49 -46 -117 -60 -150 -14 -33
-41 -100 -60 -150 -19 -49 -46 -117 -60 -150 -14 -33 -41 -100 -60 -150 -19
-49 -46 -117 -60 -150 -14 -33 -41 -100 -60 -150 -19 -49 -46 -117 -60 -150
-14 -33 -41 -100 -60 -150 -19 -49 -46 -117 -60 -150 -120 -281 -120 -297 8
-306 145 -11 169 3 218 130 25 64 57 143 72 176 27 63 76 187 125 320 16 44
41 107 55 140 14 33 40 96 56 140 17 44 60 152 95 240 35 88 78 196 95 240 16
44 42 107 56 140 14 33 40 98 57 145 64 169 100 255 118 280 15 20 279 24
1248 20 l1228 -5 37 -70 c20 -38 66 -142 101 -230 35 -88 75 -187 89 -220 15
-33 55 -132 91 -220 36 -88 76 -187 90 -220 15 -33 42 -100 61 -150 19 -49 48
-121 64 -160 47 -108 75 -177 144 -350 35 -88 84 -200 109 -250 l44 -90 369 0
369 0 7 48 c3 26 -9 80 -28 120 -39 81 -57 125 -149 352 -36 88 -78 192 -95
230 -17 39 -44 102 -60 140 -16 39 -40 97 -54 130 -14 33 -42 101 -61 150 -36
92 -59 148 -121 290 -46 108 -73 171 -149 360 -36 88 -78 192 -95 230 -43 100
-68 160 -174 420 -52 127 -106 257 -120 290 -15 33 -55 132 -91 220 -36 88
-78 192 -95 230 -17 39 -41 97 -54 130 -13 33 -38 92 -55 130 -17 39 -60 142
-96 230 -36 88 -78 192 -95 230 -42 97 -70 165 -145 350 -60 150 -76 187 -148
355 -15 36 -70 169 -122 295 -52 127 -106 257 -121 290 -14 33 -68 164 -120
290 -133 327 -193 469 -228 540 -9 19 -50 32 -108 36 l-92 6 -43 -96z m-28
-1162 c61 -152 91 -223 135 -324 17 -38 59 -142 95 -230 36 -88 78 -191 95
-230 42 -97 70 -165 145 -350 36 -88 79 -191 96 -230 41 -94 65 -150 174 -420
51 -126 105 -257 119 -290 15 -33 55 -132 91 -220 35 -88 73 -179 85 -203 11
-24 14 -53 6 -65 -16 -26 -2145 -31 -2186 -6 -29 19 -7 100 89 324 12 28 37
91 56 140 19 50 47 117 61 150 14 33 41 101 60 150 19 50 46 117 60 150 14 33
40 101 59 150 19 50 45 117 59 150 14 33 41 101 60 150 19 50 46 117 60 150
14 33 41 101 60 150 19 50 46 117 60 150 14 33 41 101 60 150 19 50 46 117 60
150 14 33 41 101 60 150 36 94 63 158 118 286 18 41 33 92 33 111 0 20 5 42
12 48 29 29 67 -17 118 -141z"/>
<path d="M47881 18112 c-29 -35 -30 -5939 0 -5993 19 -36 44 -39 359 -39 314
0 340 3 359 39 14 25 21 524 21 1477 l0 1439 45 12 c25 7 699 13 1498 13 1192
0 1456 -5 1474 -27 16 -19 24 -448 28 -1485 l5 -1458 337 -5 c232 -4 346 1
365 17 24 19 28 494 28 3020 l0 2997 -45 11 c-25 5 -189 8 -365 5 l-320 -5
-10 -1400 -10 -1400 -1510 0 -1510 0 -5 1378 c-4 927 -12 1387 -26 1404 -30
36 -688 36 -718 0z"/>
<path d="M60115 18126 c-33 -8 -35 -168 -35 -3003 0 -2303 6 -3001 24 -3019
34 -34 678 -34 712 0 18 18 24 716 24 3018 0 2568 -4 2995 -28 3005 -34 12
-645 12 -697 -1z"/>
<path d="M62965 18118 c-36 -37 -37 -5978 -1 -6014 27 -27 669 -34 711 -8 19
13 26 328 30 1425 l5 1409 394 5 393 6 177 -266 c97 -146 181 -274 186 -285 6
-11 208 -317 450 -680 242 -363 443 -666 446 -673 20 -43 550 -839 594 -892
l54 -65 408 0 c466 0 464 -1 343 162 -36 48 -127 178 -202 288 -75 110 -190
277 -256 370 -66 94 -153 220 -195 280 -41 61 -129 186 -194 279 -65 92 -196
281 -292 420 -96 138 -219 314 -272 391 -202 290 -294 423 -360 520 -37 55
-81 115 -98 134 -46 51 -19 91 78 117 131 35 342 117 416 161 17 10 44 24 60
32 17 7 79 49 139 93 291 214 422 383 590 763 89 201 114 550 59 797 -85 381
-233 619 -535 860 -119 95 -379 214 -613 280 -327 92 -408 98 -1470 107 -813
7 -1025 4 -1045 -16z m1875 -278 c222 -22 284 -38 480 -127 104 -47 337 -271
388 -373 147 -294 202 -713 143 -1091 -54 -343 -105 -485 -246 -673 -128 -171
-231 -238 -460 -298 -131 -35 -207 -38 -790 -33 l-645 5 -5 1283 c-4 1045 0
1289 21 1310 33 33 757 31 1114 -3z"/>
<path d="M76315 18119 c-33 -20 -35 -185 -35 -3008 0 -2516 4 -2990 28 -3009
19 -16 135 -21 375 -17 l347 5 10 1320 10 1320 800 11 c440 6 812 18 825 26
13 8 81 27 150 43 585 130 1048 511 1240 1020 81 215 95 303 95 602 -1 232
-10 329 -40 438 -52 189 -90 292 -139 373 -22 37 -49 87 -60 111 -11 24 -107
133 -215 241 -169 169 -222 209 -386 290 -188 92 -319 138 -590 206 -123 31
-275 36 -1260 42 -775 6 -1131 1 -1155 -14z m1605 -287 c547 -8 598 -11 700
-52 61 -24 119 -51 129 -62 10 -10 31 -18 47 -18 15 0 80 -40 144 -90 178
-137 328 -381 381 -620 9 -44 27 -111 38 -150 34 -113 27 -746 -10 -889 -85
-332 -137 -434 -316 -617 -164 -169 -372 -260 -663 -292 -212 -23 -1276 -33
-1310 -12 -27 17 -28 2774 0 2802 11 11 76 17 145 14 69 -3 391 -9 715 -14z"/>
</g>
</svg>
